<mxfile host="app.diagrams.net" modified="2023-12-29T08:41:54.015Z" agent="Mozilla/5.0 (Windows NT 10.0; Win64; x64) AppleWebKit/537.36 (KHTML, like Gecko) Chrome/120.0.0.0 Safari/537.36" etag="JzyITB6lnWQsVuqpA3Xg" version="22.1.15" type="device">
  <diagram name="Страница — 1" id="F7vgCloqMJHni-gncgjs">
    <mxGraphModel dx="1290" dy="522" grid="1" gridSize="10" guides="1" tooltips="1" connect="1" arrows="1" fold="1" page="1" pageScale="1" pageWidth="1600" pageHeight="900" math="0" shadow="0">
      <root>
        <mxCell id="0" />
        <mxCell id="1" parent="0" />
        <mxCell id="Xv0ZlLKX4Gklx7dNg7qq-1" value="Actor" style="shape=umlActor;verticalLabelPosition=bottom;verticalAlign=top;html=1;outlineConnect=0;" vertex="1" parent="1">
          <mxGeometry x="570" y="290" width="30" height="60" as="geometry" />
        </mxCell>
        <mxCell id="Xv0ZlLKX4Gklx7dNg7qq-2" value="Проверка правильности заполнения инфомрации отельерами" style="ellipse;whiteSpace=wrap;html=1;" vertex="1" parent="1">
          <mxGeometry x="610" y="180" width="120" height="80" as="geometry" />
        </mxCell>
        <mxCell id="Xv0ZlLKX4Gklx7dNg7qq-3" value="Добавление и удаление отелей с главной страницы" style="ellipse;whiteSpace=wrap;html=1;" vertex="1" parent="1">
          <mxGeometry x="460" y="180" width="120" height="80" as="geometry" />
        </mxCell>
        <mxCell id="Xv0ZlLKX4Gklx7dNg7qq-4" value="Добавление и тестировка новых возможнонстей приложения" style="ellipse;whiteSpace=wrap;html=1;" vertex="1" parent="1">
          <mxGeometry x="640" y="290" width="120" height="80" as="geometry" />
        </mxCell>
        <mxCell id="Xv0ZlLKX4Gklx7dNg7qq-5" value="Модерирование раздела комментариев, рассмотрение жалоб, ответы на вопросы в разделе &quot;Поддержка&quot;" style="ellipse;whiteSpace=wrap;html=1;" vertex="1" parent="1">
          <mxGeometry x="280" y="280" width="260" height="80" as="geometry" />
        </mxCell>
        <mxCell id="Xv0ZlLKX4Gklx7dNg7qq-6" value="Контроль за исправной работой сервиса" style="ellipse;whiteSpace=wrap;html=1;" vertex="1" parent="1">
          <mxGeometry x="480" y="400" width="120" height="80" as="geometry" />
        </mxCell>
        <mxCell id="Xv0ZlLKX4Gklx7dNg7qq-7" value="Блокировка пользователей при нарушении правил" style="ellipse;whiteSpace=wrap;html=1;" vertex="1" parent="1">
          <mxGeometry x="620" y="380" width="120" height="80" as="geometry" />
        </mxCell>
        <mxCell id="Xv0ZlLKX4Gklx7dNg7qq-10" value="" style="endArrow=classic;html=1;rounded=0;entryX=0.28;entryY=1.005;entryDx=0;entryDy=0;entryPerimeter=0;" edge="1" parent="1" source="Xv0ZlLKX4Gklx7dNg7qq-1" target="Xv0ZlLKX4Gklx7dNg7qq-2">
          <mxGeometry width="50" height="50" relative="1" as="geometry">
            <mxPoint x="630" y="300" as="sourcePoint" />
            <mxPoint x="680" y="250" as="targetPoint" />
          </mxGeometry>
        </mxCell>
        <mxCell id="Xv0ZlLKX4Gklx7dNg7qq-11" value="" style="endArrow=classic;html=1;rounded=0;entryX=0;entryY=0.5;entryDx=0;entryDy=0;exitX=0.5;exitY=0.5;exitDx=0;exitDy=0;exitPerimeter=0;" edge="1" parent="1" source="Xv0ZlLKX4Gklx7dNg7qq-1" target="Xv0ZlLKX4Gklx7dNg7qq-4">
          <mxGeometry width="50" height="50" relative="1" as="geometry">
            <mxPoint x="610" y="315" as="sourcePoint" />
            <mxPoint x="654" y="270" as="targetPoint" />
          </mxGeometry>
        </mxCell>
        <mxCell id="Xv0ZlLKX4Gklx7dNg7qq-12" value="" style="endArrow=classic;html=1;rounded=0;entryX=0.17;entryY=0.065;entryDx=0;entryDy=0;entryPerimeter=0;" edge="1" parent="1" source="Xv0ZlLKX4Gklx7dNg7qq-1" target="Xv0ZlLKX4Gklx7dNg7qq-7">
          <mxGeometry width="50" height="50" relative="1" as="geometry">
            <mxPoint x="595" y="330" as="sourcePoint" />
            <mxPoint x="650" y="340" as="targetPoint" />
          </mxGeometry>
        </mxCell>
        <mxCell id="Xv0ZlLKX4Gklx7dNg7qq-13" value="" style="endArrow=classic;html=1;rounded=0;entryX=1;entryY=0;entryDx=0;entryDy=0;" edge="1" parent="1" source="Xv0ZlLKX4Gklx7dNg7qq-1" target="Xv0ZlLKX4Gklx7dNg7qq-6">
          <mxGeometry width="50" height="50" relative="1" as="geometry">
            <mxPoint x="605" y="340" as="sourcePoint" />
            <mxPoint x="660" y="350" as="targetPoint" />
          </mxGeometry>
        </mxCell>
        <mxCell id="Xv0ZlLKX4Gklx7dNg7qq-14" value="" style="endArrow=classic;html=1;rounded=0;" edge="1" parent="1" source="Xv0ZlLKX4Gklx7dNg7qq-1" target="Xv0ZlLKX4Gklx7dNg7qq-5">
          <mxGeometry width="50" height="50" relative="1" as="geometry">
            <mxPoint x="615" y="350" as="sourcePoint" />
            <mxPoint x="670" y="360" as="targetPoint" />
          </mxGeometry>
        </mxCell>
        <mxCell id="Xv0ZlLKX4Gklx7dNg7qq-15" value="" style="endArrow=classic;html=1;rounded=0;entryX=0.643;entryY=0.965;entryDx=0;entryDy=0;entryPerimeter=0;" edge="1" parent="1" source="Xv0ZlLKX4Gklx7dNg7qq-1" target="Xv0ZlLKX4Gklx7dNg7qq-3">
          <mxGeometry width="50" height="50" relative="1" as="geometry">
            <mxPoint x="625" y="360" as="sourcePoint" />
            <mxPoint x="680" y="370" as="targetPoint" />
          </mxGeometry>
        </mxCell>
      </root>
    </mxGraphModel>
  </diagram>
</mxfile>
